<svg width="32" height="32" viewBox="0 0 32 32" fill="none" xmlns="http://www.w3.org/2000/svg">
<g clip-path="url(#clip0_13_2)">
<path d="M23.6782 1.0938C17.4036 -3.20713 14.4028 6.56346 14.4028 6.56346C14.4028 6.56346 11.2655 -1.75042 5.19557 2.91702C-0.874361 7.58447 4.50014 13.6231 7.35896 14.2231C7.84362 14.3026 8.12823 14.3668 8.12823 14.3668C8.12823 14.3668 7.83704 14.3234 7.35896 14.2231C4.22994 13.71 -1.47423 16.3359 0.353267 23.41C2.18077 30.4841 11.2655 25.7437 11.2655 25.7437C11.2655 25.7437 12.2203 33.5471 19.0405 31.7239C25.8606 29.9007 23.6782 22.1702 23.6782 22.1702C23.6782 22.1702 30.9757 25.8167 31.9306 18.0133C32.8854 10.2099 23.6782 12.2519 23.6782 12.2519C23.6782 12.2519 29.9527 5.39474 23.6782 1.0938Z" fill="#FD6378"/>
<path d="M18.62 23.14C18.0867 23.14 17.6467 23.02 17.3 22.78C16.9533 22.54 16.6733 22.22 16.46 21.82C16.2467 21.4067 16.0733 20.9533 15.94 20.46C15.82 19.9533 15.7067 19.4467 15.6 18.94C15.4667 18.2333 15.3 17.5733 15.1 16.96C14.9133 16.3467 14.6067 15.92 14.18 15.68C13.9133 16.6533 13.66 17.6333 13.42 18.62C13.18 19.5933 13.06 20.56 13.06 21.52C13.06 21.6667 13.06 21.82 13.06 21.98C13.0733 22.1267 13.0867 22.2733 13.1 22.42C12.6333 22.86 12.0933 23.08 11.48 23.08C10.9733 23.08 10.5133 22.8867 10.1 22.5C9.7 22.1133 9.5 21.4867 9.5 20.62C9.5 19.9667 9.60667 19.3 9.82 18.62C10.0333 17.94 10.28 17.2533 10.56 16.56C10.8533 15.8667 11.1067 15.18 11.32 14.5C11.5333 13.8067 11.64 13.1267 11.64 12.46C11.64 12.02 11.5867 11.7133 11.48 11.54C11.3733 11.3533 11.2333 11.26 11.06 11.26C10.8733 11.26 10.6667 11.3533 10.44 11.54C10.2267 11.7267 10.02 12.0133 9.82 12.4L9.68 12.36C9.70667 11.68 9.86 11.0533 10.14 10.48C10.42 9.90667 10.7933 9.45333 11.26 9.12C11.74 8.77333 12.26 8.6 12.82 8.6C13.38 8.6 13.8733 8.81333 14.3 9.24C14.7267 9.65333 14.94 10.3733 14.94 11.4C14.94 11.8533 14.8933 12.34 14.8 12.86C14.72 13.3667 14.62 13.8867 14.5 14.42C15.1 13.9 15.62 13.3267 16.06 12.7C16.5133 12.06 16.86 11.44 17.1 10.84C17.3533 10.2267 17.48 9.69333 17.48 9.24C17.48 8.94667 17.42 8.7 17.3 8.5C17.9533 8.5 18.5333 8.59333 19.04 8.78C19.56 8.96667 19.9733 9.22667 20.28 9.56C20.5867 9.88 20.74 10.2533 20.74 10.68C20.74 11.2533 20.4133 11.88 19.76 12.56C19.12 13.24 18.0333 13.9133 16.5 14.58C16.8867 14.7533 17.2 15.0133 17.44 15.36C17.6933 15.6933 17.9 16.06 18.06 16.46C18.2333 16.8467 18.38 17.2267 18.5 17.6C18.7267 18.2533 18.9467 18.8067 19.16 19.26C19.3867 19.7 19.7067 19.92 20.12 19.92C20.3867 19.92 20.62 19.8333 20.82 19.66C21.0333 19.4867 21.1867 19.2933 21.28 19.08L21.4 19.14C21.4 19.86 21.2933 20.5267 21.08 21.14C20.8667 21.74 20.5533 22.2267 20.14 22.6C19.7267 22.96 19.22 23.14 18.62 23.14Z" fill="#F2F2F2"/>
</g>
<defs>
<clipPath id="clip0_13_2">
<rect width="32" height="32" fill="white"/>
</clipPath>
</defs>
</svg>
